PathFileType  4	(X/Y/Z) C:\Users\antoi\Documents\MyRepositories\mobilecap\ResultsAnalysis
DataRate	CameraRate	NumFrames	NumMarkers	Units	OrigDataRate	OrigDataStartFrame	OrigNumFrames
100.0	100.0	7	51	mm	100.0	1	2161
Frame#	Time	r_knee			r_shank_antsup			r_ankle			r_calc			r_5meta			r_toe			L_knee			L_shank_antsup			L_ankle			L_calc			L_5meta			L_toe			r_sh2			r_sh3			r_sh4			L_sh2			L_sh3			r_thigh1			r_thigh2			r_thigh3			r_thigh4			r_thigh5			L_thigh1			L_thigh2			L_thigh3			L_thigh4			r.ASIS			r.PSIS			L.ASIS			L.PSIS			C7			R_Shoulder			L_Shoulder			R_Sternum			L_Sternum			R_humerus			R_elbow_med			R_elbow_lat			R_forearm			R_wrist_radius			R_wrist_ulna			L_humerus			L_elbow_med			L_elbow_lat			L_forearm			L_wrist_radius			L_wrist_ulna			R_HJC			L_HJC			R_HJC_reg			L_HJC_reg			
		X1	Y1	Z1	X2	Y2	Z2	X3	Y3	Z3	X4	Y4	Z4	X5	Y5	Z5	X6	Y6	Z6	X7	Y7	Z7	X8	Y8	Z8	X9	Y9	Z9	X10	Y10	Z10	X11	Y11	Z11	X12	Y12	Z12	X13	Y13	Z13	X14	Y14	Z14	X15	Y15	Z15	X16	Y16	Z16	X17	Y17	Z17	X18	Y18	Z18	X19	Y19	Z19	X20	Y20	Z20	X21	Y21	Z21	X22	Y22	Z22	X23	Y23	Z23	X24	Y24	Z24	X25	Y25	Z25	X26	Y26	Z26	X27	Y27	Z27	X28	Y28	Z28	X29	Y29	Z29	X30	Y30	Z30	X31	Y31	Z31	X32	Y32	Z32	X33	Y33	Z33	X34	Y34	Z34	X35	Y35	Z35	X36	Y36	Z36	X37	Y37	Z37	X38	Y38	Z38	X39	Y39	Z39	X40	Y40	Z40	X41	Y41	Z41	X42	Y42	Z42	X43	Y43	Z43	X44	Y44	Z44	X45	Y45	Z45	X46	Y46	Z46	X47	Y47	Z47	X48	Y48	Z48	X49	Y49	Z49	X50	Y50	Z50	X51	Y51	Z51	

1	0.00000000	-176.84938	476.28943	-417.62295	-119.07136	435.26845	-424.89845	-255.52233	98.94757	-432.50771	-320.90928	54.25344	-477.31164	-136.92429	41.13735	-396.43488	-94.92070	62.56286	-451.25000	-184.92755	474.38115	-795.09290	-143.84940	402.38711	-802.76581	-248.49870	98.84814	-770.37793	-311.33398	58.31498	-721.74292	-131.36060	42.29493	-800.81470	-88.12674	60.65623	-746.81611	-140.31283	322.13485	-437.31388	-187.62369	442.63033	-389.48401	-205.83498	327.71732	-384.12467	-249.75628	302.76471	-808.81927	-229.89702	424.14008	-810.85266	-453.66879	569.97086	-508.04060	-344.37275	580.36913	-486.96537	-330.04028	565.45897	-423.68800	-466.42677	526.40719	-406.10162	-352.09429	522.91301	-393.15249	-490.97837	547.51682	-777.50384	-352.12655	528.15142	-805.11952	-508.75616	436.58863	-795.37730	-372.73372	415.07000	-782.72676	-542.71853	601.93892	-474.94584	-722.13710	531.58815	-554.00015	-537.14499	588.48439	-716.48944	-722.45965	532.35038	-649.24072	-678.41740	1028.81283	-605.34110	-604.15621	986.15215	-437.12811	-608.66679	985.96880	-762.16416	-571.08876	931.07035	-583.50708	-569.32655	929.24703	-621.21699	-626.93271	753.68767	-350.03562	-693.90679	652.30739	-382.16137	-649.22038	664.90915	-326.21047	-531.41947	709.82862	-384.81261	-471.06295	768.32145	-440.37967	-450.31160	728.15867	-437.79867	-635.97299	762.94009	-853.77962	-677.76374	647.44902	-804.12198	-655.48774	655.35738	-873.20618	-525.16611	705.32171	-824.18163	-454.64519	768.58294	-777.12650	-439.02013	728.79028	-771.50901	-564.77468	492.52959	-509.65295	-576.09566	486.69112	-699.89838	-561.17323	496.17435	-509.28090	-561.71408	497.45248	-668.98314	
2	0.01000000	-176.82954	476.22927	-417.62381	-118.97889	435.34986	-424.82717	-255.58126	98.92958	-432.48397	-320.96155	54.20809	-477.27038	-136.94415	41.14434	-396.39587	-94.93341	62.57671	-451.24918	-184.88662	474.37116	-795.11918	-143.83202	402.36843	-802.78327	-248.51005	98.73343	-770.13107	-311.33257	58.30690	-721.75488	-131.37169	42.29410	-800.81757	-88.16379	60.66772	-746.77797	-140.24906	322.13908	-437.30011	-187.77214	442.59186	-389.50472	-206.00243	327.65995	-384.20195	-249.79357	302.73439	-808.74550	-229.87673	424.14203	-810.89433	-453.64355	569.90220	-507.96464	-344.30465	580.34478	-486.95019	-330.01567	565.37896	-423.60166	-466.21062	525.64753	-406.55033	-352.07295	522.91144	-393.15412	-490.96995	547.50944	-777.50969	-352.04988	528.06066	-805.07817	-508.73267	436.58600	-795.37805	-372.71703	414.92915	-782.48219	-542.75060	601.99585	-475.02781	-722.12606	531.57591	-554.00582	-537.15224	588.50788	-716.46714	-722.52769	532.28509	-649.23437	-678.61750	1028.75819	-605.33284	-604.40192	985.99183	-437.23384	-608.75503	985.87781	-762.09632	-571.20118	931.01477	-583.50767	-569.48427	929.19433	-621.22172	-627.02173	753.62274	-350.03455	-693.96365	652.16590	-382.14836	-649.30252	664.65644	-326.21659	-531.49730	709.93759	-384.89527	-471.12059	768.25380	-440.32896	-450.38260	728.01992	-437.89273	-635.99782	762.91326	-853.78969	-677.75652	647.43489	-804.11169	-655.48996	655.31010	-873.18057	-525.19621	705.31683	-824.09082	-454.69795	768.61255	-777.11196	-439.06657	728.78268	-771.48306	-564.76677	492.57560	-509.65539	-576.09756	486.68879	-699.89876	-561.10693	496.28110	-509.27153	-561.78018	497.46991	-668.90686	
3	0.02000000	-176.79600	476.13512	-417.62561	-118.93926	435.35741	-424.75027	-255.59323	98.91596	-432.48215	-320.96689	54.25042	-477.33379	-136.95944	41.08567	-396.44958	-94.93307	62.56720	-451.24190	-184.85322	474.35759	-795.14901	-143.80415	402.35095	-802.80225	-248.51705	98.68357	-770.02132	-311.32958	58.31236	-721.75238	-131.37150	42.29849	-800.81478	-88.15961	60.65792	-746.77634	-140.24210	322.10156	-437.24367	-187.77434	442.56707	-389.48325	-206.02577	327.76383	-384.09853	-249.78661	302.70736	-808.74521	-229.84488	424.14030	-810.92583	-453.70664	569.76641	-507.87114	-344.24249	580.32591	-486.87905	-329.98744	565.34292	-423.55814	-466.22399	525.55140	-406.55826	-352.02441	522.91492	-393.12860	-490.93885	547.50795	-777.51384	-351.99830	527.99700	-805.06479	-508.71135	436.58967	-795.37592	-372.69818	414.87882	-782.39868	-542.75313	602.02554	-475.04646	-722.12591	531.55354	-553.99959	-537.17530	588.55331	-716.48556	-722.54499	532.24561	-649.24020	-678.82704	1028.70538	-605.28982	-604.59280	985.87916	-437.32869	-608.90159	985.77873	-762.04063	-571.35208	930.93535	-583.48338	-569.66224	929.12575	-621.20956	-627.03459	753.60785	-349.98880	-694.02983	652.09849	-382.21183	-649.38080	664.52231	-326.25922	-531.57448	709.89275	-384.93450	-471.21460	768.19392	-440.33400	-450.53813	727.88224	-438.03261	-636.02429	762.83763	-853.74514	-677.70716	647.33774	-804.07163	-655.48716	655.26728	-873.17222	-525.22797	705.31932	-823.98098	-454.72479	768.65061	-777.01090	-439.10557	728.81788	-771.46882	-564.74276	492.59968	-509.67388	-576.09329	486.71360	-699.91609	-561.08684	496.32848	-509.26897	-561.78928	497.48847	-668.90333	
4	0.03000000	-176.71453	476.06454	-417.60451	-118.92803	435.30546	-424.68773	-255.57817	98.91110	-432.48823	-320.94667	54.34670	-477.44777	-136.99382	40.99920	-396.53922	-94.92648	62.54614	-451.23228	-184.82634	474.33802	-795.18565	-143.77327	402.33657	-802.81218	-248.52339	98.68716	-770.03562	-311.32887	58.32442	-721.74891	-131.36658	42.30238	-800.80966	-88.13962	60.64027	-746.78032	-140.23234	322.07833	-437.20116	-187.66950	442.55528	-389.40581	-205.90049	327.81597	-384.01420	-249.74080	302.71077	-808.80575	-229.80803	424.12422	-810.93754	-453.71767	569.69099	-507.84442	-344.19985	580.29972	-486.78523	-329.94605	565.33765	-423.53784	-466.29653	525.74516	-406.36938	-351.98481	522.88840	-393.10133	-490.89431	547.51759	-777.51614	-351.96937	527.96469	-805.08220	-508.68125	436.57342	-795.36591	-372.67384	414.88824	-782.43411	-542.75683	602.03498	-474.98575	-722.14528	531.55444	-553.98889	-537.22635	588.63979	-716.53450	-722.51871	532.25415	-649.21903	-679.06788	1028.65109	-605.28521	-604.76515	985.80551	-437.35564	-609.12704	985.67631	-762.01492	-571.56764	930.83961	-583.47083	-569.86249	929.02836	-621.21319	-627.12199	753.52142	-350.01355	-694.09918	652.09613	-382.26903	-649.42625	664.51598	-326.28477	-531.65896	709.74671	-384.96216	-471.32662	768.14913	-440.38646	-450.68225	727.78685	-438.12759	-636.06204	762.70714	-853.62175	-677.63536	647.19628	-804.01863	-655.49309	655.18608	-873.12174	-525.25519	705.31783	-823.88890	-454.77403	768.67741	-776.86767	-439.15275	728.86051	-771.44375	-564.72291	492.61806	-509.69307	-576.09837	486.78469	-699.93541	-561.14376	496.34218	-509.24716	-561.76999	497.51564	-668.95042	
5	0.04000000	-176.56809	476.04046	-417.57915	-118.89345	435.27069	-424.63377	-255.57366	98.90697	-432.48653	-320.93907	54.37690	-477.48441	-137.03366	40.97238	-396.55405	-94.92236	62.53320	-451.22342	-184.79796	474.31317	-795.22285	-143.74235	402.32866	-802.83404	-248.52691	98.73145	-770.14581	-311.33318	58.32970	-721.75446	-131.36561	42.29823	-800.81031	-88.13884	60.63481	-746.76350	-140.16200	322.10577	-437.20038	-187.56579	442.52805	-389.31183	-205.55754	327.44854	-384.35372	-249.70189	302.72949	-808.85896	-229.75628	424.10926	-810.97182	-453.61969	569.72425	-507.89825	-344.17599	580.28231	-486.72220	-329.89678	565.33020	-423.48911	-466.30286	525.88478	-406.25218	-351.99022	522.83887	-393.05929	-490.86710	547.51636	-777.51500	-351.94641	527.93812	-805.10672	-508.63642	436.53469	-795.35249	-372.64412	414.88565	-782.47849	-542.79268	602.03929	-474.91414	-722.17489	531.57438	-553.98033	-537.29945	588.73874	-716.55781	-722.52285	532.28460	-649.17396	-679.34485	1028.59202	-605.35958	-604.95162	985.73502	-437.30023	-609.40462	985.56658	-761.99490	-571.84567	930.74651	-583.49951	-570.08403	928.91783	-621.22982	-627.35029	753.33786	-350.17320	-694.15490	652.06786	-382.21669	-649.45663	664.51422	-326.26774	-531.75632	709.61080	-385.01880	-471.43250	768.12308	-440.41561	-450.75494	727.76720	-438.13337	-636.11338	762.56894	-853.50192	-677.59821	647.10521	-803.99280	-655.50058	655.04696	-872.99653	-525.29005	705.29121	-823.79766	-454.87404	768.68279	-776.76091	-439.21740	728.89582	-771.42159	-564.73291	492.63808	-509.70140	-576.13088	486.87078	-699.94441	-561.21129	496.36279	-509.21061	-561.79523	497.55462	-668.97255	
6	0.05000000	-176.50383	476.04957	-417.48059	-118.83322	435.28045	-424.56589	-255.57343	98.88324	-432.48335	-320.93144	54.32793	-477.46689	-137.04243	40.98324	-396.52569	-94.91769	62.53210	-451.21590	-184.76664	474.28169	-795.25427	-143.69790	402.30933	-802.89996	-248.52651	98.80318	-770.30300	-311.34116	58.32610	-721.75698	-131.36750	42.29164	-800.81676	-88.14741	60.64288	-746.75463	-140.07091	322.11567	-437.17031	-187.48916	442.45768	-389.23217	-205.16566	326.91428	-384.89661	-249.68495	302.72709	-808.87536	-229.66409	424.14073	-811.10229	-453.54108	569.74944	-507.91120	-344.14066	580.29916	-486.67160	-329.85825	565.29379	-423.39975	-466.32366	526.05931	-406.17500	-351.99221	522.83431	-392.93343	-490.85177	547.49569	-777.53242	-351.91234	527.90883	-805.13124	-508.59320	436.50903	-795.34135	-372.61159	414.86354	-782.50994	-542.84147	602.05322	-474.88361	-722.20052	531.53712	-553.94883	-537.36955	588.82856	-716.58541	-722.57489	532.20917	-649.20734	-679.63252	1028.51131	-605.42986	-605.18330	985.64700	-437.27181	-609.70178	985.45019	-761.97765	-572.17098	930.64602	-583.53273	-570.34740	928.82484	-621.19718	-627.54710	753.20871	-350.32708	-694.20472	651.92692	-382.15001	-649.53348	664.40868	-326.26355	-531.86953	709.52102	-385.07838	-471.54022	768.10421	-440.40127	-450.84005	727.81762	-438.09122	-636.16529	762.46622	-853.49186	-677.59930	647.06666	-803.99681	-655.49501	654.89308	-872.86323	-525.34758	705.24346	-823.67767	-454.97696	768.68829	-776.68971	-439.29263	728.94697	-771.41404	-564.73183	492.65371	-509.72444	-576.14687	486.92322	-699.96755	-561.22679	496.42945	-509.14578	-561.85468	497.55669	-668.94325	
7	0.06000000	-176.70531	476.14354	-417.14555	-118.75432	435.30560	-424.48848	-255.56740	98.87301	-432.48308	-320.92060	54.32820	-477.48427	-137.02377	40.96490	-396.53816	-94.91040	62.53758	-451.21698	-184.73121	474.24795	-795.29386	-143.63114	402.25469	-802.97057	-248.53106	98.84761	-770.38539	-311.35013	58.32007	-721.75175	-131.36866	42.29600	-800.81933	-88.15325	60.65996	-746.76440	-140.00632	322.05709	-437.09357	-187.41933	442.37451	-389.15331	-205.19186	326.90814	-384.89559	-249.66852	302.71174	-808.87245	-229.55270	424.21117	-811.28150	-453.48589	569.76754	-507.86283	-344.07010	580.32875	-486.59215	-329.82900	565.24787	-423.29288	-466.24529	526.02271	-406.21123	-351.93158	522.88399	-392.74619	-490.80504	547.50697	-777.60360	-351.85164	527.90253	-805.17959	-508.56405	436.51200	-795.33565	-372.57168	414.85282	-782.54551	-542.89691	602.09234	-474.86391	-722.22827	531.42292	-553.87949	-537.43078	588.91922	-716.65266	-722.59641	531.93723	-649.36236	-679.93065	1028.38451	-605.42572	-605.52913	985.53528	-437.36241	-610.02833	985.35991	-762.01848	-572.54085	930.51808	-583.56308	-570.68329	928.74100	-621.08747	-627.64797	753.15706	-350.37134	-694.28740	651.69390	-382.22966	-649.66333	664.23881	-326.30315	-532.00844	709.48200	-385.09399	-471.66542	768.07678	-440.41926	-450.98273	727.90874	-437.98802	-636.22653	762.37937	-853.54096	-677.58111	647.02177	-804.00637	-655.49966	654.75175	-872.77674	-525.41574	705.19990	-823.58099	-455.06068	768.70706	-776.61018	-439.35924	729.01024	-771.36793	-564.68084	492.67932	-509.75548	-576.08583	486.92999	-699.99861	-561.27952	496.60736	-508.97904	-561.89596	497.46871	-668.83322	
